<?xml version="1.0" encoding="UTF-8" standalone="no"?>
<!-- Created with Inkscape (http://www.inkscape.org/) -->

<svg
   xmlns:dc="http://purl.org/dc/elements/1.1/"
   xmlns:cc="http://creativecommons.org/ns#"
   xmlns:rdf="http://www.w3.org/1999/02/22-rdf-syntax-ns#"
   xmlns:svg="http://www.w3.org/2000/svg"
   xmlns="http://www.w3.org/2000/svg"
   xmlns:sodipodi="http://sodipodi.sourceforge.net/DTD/sodipodi-0.dtd"
   xmlns:inkscape="http://www.inkscape.org/namespaces/inkscape"
   version="1.1"
   width="744.09448"
   height="1052.3622"
   id="svg2"
   inkscape:version="0.48.2 r9819"
   sodipodi:docname="hiplex_logo.svg"
   inkscape:export-filename="/Users/bjpop/Desktop/hiplex_logo.png"
   inkscape:export-xdpi="90"
   inkscape:export-ydpi="90">
  <sodipodi:namedview
     pagecolor="#ffffff"
     bordercolor="#666666"
     borderopacity="1"
     objecttolerance="10"
     gridtolerance="10"
     guidetolerance="10"
     inkscape:pageopacity="0"
     inkscape:pageshadow="2"
     inkscape:window-width="1362"
     inkscape:window-height="724"
     id="namedview55"
     showgrid="false"
     inkscape:zoom="1.2685914"
     inkscape:cx="133.59379"
     inkscape:cy="463.11902"
     inkscape:window-x="4"
     inkscape:window-y="0"
     inkscape:window-maximized="1"
     inkscape:current-layer="svg2" />
  <defs
     id="defs4">
    <filter
       x="0"
       y="0"
       width="1"
       height="1"
       color-interpolation-filters="sRGB"
       id="filter4371">
      <feGaussianBlur
         result="blur"
         stdDeviation="2"
         in="SourceAlpha"
         id="feGaussianBlur4373" />
      <feColorMatrix
         values="1 0 0 0 0 0 1 0 0 0 0 0 1 0 0 0 0 0 0.5 0 "
         type="matrix"
         result="bluralpha"
         id="feColorMatrix4375" />
      <feOffset
         result="offsetBlur"
         dy="4"
         dx="4"
         in="bluralpha"
         id="feOffset4377" />
      <feMerge
         result="fbSourceGraphic"
         id="feMerge4379">
        <feMergeNode
           in="offsetBlur"
           id="feMergeNode4381" />
        <feMergeNode
           in="SourceGraphic"
           id="feMergeNode4383" />
      </feMerge>
      <feColorMatrix
         id="feColorMatrix3030"
         values="0 0 0 -1 0 0 0 0 -1 0 0 0 0 -1 0 0 0 0 1 0"
         in="fbSourceGraphic"
         result="fbSourceGraphicAlpha" />
      <feColorMatrix
         in="fbSourceGraphic"
         result="result1"
         values="0"
         type="saturate"
         id="feColorMatrix3032" />
      <feFlood
         result="result2"
         flood-color="rgb(9,111,152)"
         id="feFlood3034" />
      <feBlend
         in2="result1"
         mode="screen"
         result="result2"
         id="feBlend3036" />
      <feComposite
         in2="fbSourceGraphic"
         operator="in"
         in="result2"
         id="feComposite3038" />
    </filter>
    <filter
       x="0"
       y="0"
       width="1"
       height="1"
       color-interpolation-filters="sRGB"
       id="filter4385">
      <feGaussianBlur
         result="blur"
         stdDeviation="2"
         in="SourceAlpha"
         id="feGaussianBlur4387" />
      <feColorMatrix
         values="1 0 0 0 0 0 1 0 0 0 0 0 1 0 0 0 0 0 0.5 0 "
         type="matrix"
         result="bluralpha"
         id="feColorMatrix4389" />
      <feOffset
         result="offsetBlur"
         dy="4"
         dx="4"
         in="bluralpha"
         id="feOffset4391" />
      <feMerge
         result="fbSourceGraphic"
         id="feMerge4393">
        <feMergeNode
           in="offsetBlur"
           id="feMergeNode4395" />
        <feMergeNode
           in="SourceGraphic"
           id="feMergeNode4397" />
      </feMerge>
      <feColorMatrix
         id="feColorMatrix3040"
         values="0 0 0 -1 0 0 0 0 -1 0 0 0 0 -1 0 0 0 0 1 0"
         in="fbSourceGraphic"
         result="fbSourceGraphicAlpha" />
      <feColorMatrix
         in="fbSourceGraphic"
         result="result1"
         values="0"
         type="saturate"
         id="feColorMatrix3042" />
      <feFlood
         result="result2"
         flood-color="rgb(9,111,152)"
         id="feFlood3044" />
      <feBlend
         in2="result1"
         mode="screen"
         result="result2"
         id="feBlend3046" />
      <feComposite
         in2="fbSourceGraphic"
         operator="in"
         in="result2"
         id="feComposite3048" />
    </filter>
    <filter
       color-interpolation-filters="sRGB"
       id="filter4451">
      <feGaussianBlur
         result="result0"
         in="SourceAlpha"
         stdDeviation="2"
         id="feGaussianBlur4453" />
      <feComposite
         in2="result0"
         operator="arithmetic"
         k1="0"
         k2="1"
         k3="10"
         k4="0"
         in="SourceGraphic"
         result="result3"
         id="feComposite4455" />
      <feComposite
         in2="result3"
         operator="in"
         in="result3"
         result="result4"
         id="feComposite4457" />
    </filter>
    <filter
       color-interpolation-filters="sRGB"
       id="filter4479">
      <feGaussianBlur
         result="result0"
         in="SourceAlpha"
         stdDeviation="2"
         id="feGaussianBlur4481" />
      <feComposite
         in2="result0"
         operator="arithmetic"
         k1="0"
         k2="1"
         k3="10"
         k4="0"
         in="SourceGraphic"
         result="result3"
         id="feComposite4483" />
      <feComposite
         in2="result3"
         operator="in"
         in="result3"
         result="result4"
         id="feComposite4485" />
    </filter>
    <filter
       color-interpolation-filters="sRGB"
       id="filter4608">
      <feGaussianBlur
         result="result0"
         in="SourceAlpha"
         stdDeviation="2"
         id="feGaussianBlur4610" />
      <feComposite
         in2="result0"
         operator="arithmetic"
         k1="0"
         k2="1"
         k3="10"
         k4="0"
         in="SourceGraphic"
         result="result3"
         id="feComposite4612" />
      <feComposite
         in2="result3"
         operator="in"
         in="result3"
         result="result4"
         id="feComposite4614" />
    </filter>
  </defs>
  <metadata
     id="metadata7">
    <rdf:RDF>
      <cc:Work
         rdf:about="">
        <dc:format>image/svg+xml</dc:format>
        <dc:type
           rdf:resource="http://purl.org/dc/dcmitype/StillImage" />
        <dc:title></dc:title>
      </cc:Work>
    </rdf:RDF>
  </metadata>
  <g
     id="g3029">
    <path
       inkscape:connector-curvature="0"
       style="fill:#58add6;fill-opacity:1;stroke:none;stroke-width:0.42857142999999998;stroke-linecap:round;stroke-linejoin:round;stroke-miterlimit:4;stroke-opacity:1;stroke-dasharray:none;opacity:1"
       id="path3768"
       d="m 270.00627,711.0527 c -29.05147,-3.49397 -55.49151,-19.60817 -71.73015,-43.71679 -1.92195,-2.85341 -4.05923,-6.28503 -4.74952,-7.62582 l -1.25508,-2.43781 4.32298,-8.63362 c 18.46918,-36.88563 49.89058,-61.57238 90.04462,-70.74508 12.54525,-2.8658 21.71809,-3.94284 39.71802,-4.66352 20.07572,-0.80378 24.78555,-1.16884 33.92857,-2.6298 25.09542,-4.00996 44.91037,-12.51978 63.35757,-27.20985 19.11748,-15.22383 35.10691,-38.97728 43.19961,-64.17617 1.30427,-4.0612 2.53211,-7.39184 2.72854,-7.40142 0.51218,-0.025 3.95803,8.77687 5.65145,14.43564 3.83726,12.82273 3.8822,13.57148 4.17003,69.47087 0.3319,64.45925 -0.12636,71.53281 -5.69173,87.85714 -10.07604,29.55499 -33.63992,52.82787 -63.65012,62.86404 -14.79057,4.94635 -13.15636,4.83993 -77.26535,5.03139 -31.82142,0.095 -60.07217,-0.0936 -62.77944,-0.4192 z" />
    <path
       inkscape:connector-curvature="0"
       style="fill:#bfebee;fill-opacity:1;fill-rule:evenodd;stroke:none;stroke-width:0.42857142999999998;stroke-linecap:round;stroke-linejoin:round;stroke-miterlimit:4;stroke-opacity:1;stroke-dasharray:none"
       id="path3770"
       d="m 188.49922,649.14631 c -1.46868,-3.41873 -3.67167,-9.92766 -4.89555,-14.46428 l -2.22524,-8.24842 -0.2467,-60 c -0.17622,-42.85888 -0.01,-61.73451 0.58292,-66.07143 1.35543,-9.91945 5.03601,-22.27202 8.98526,-30.15581 15.20416,-30.3517 42.79137,-50.66818 75.96182,-55.94175 5.98395,-0.95136 15.34163,-1.07152 66.54356,-0.85451 65.97065,0.2796 62.01693,0.0158 77.55195,5.17406 14.95055,4.96417 26.78142,12.45095 38.82811,24.57107 7.68279,7.72962 13.98358,16.03203 17.66706,23.27948 l 1.4527,2.85825 -2.99107,8.94834 c -1.64508,4.92159 -4.98385,13.07074 -7.41948,18.1092 -18.8896,39.07604 -49.90885,63.24254 -92.22797,71.85304 -10.14225,2.06361 -18.4676,2.85741 -37.92373,3.61593 -9.625,0.37525 -19.97724,0.98727 -23.00497,1.36006 -50.37653,6.20263 -88.84286,32.32911 -109.66942,74.48791 -2.09068,4.2321 -3.91321,7.69473 -4.05008,7.69473 -0.13688,0 -1.4505,-2.79714 -2.91917,-6.21587 l 0,0 z" />
    <path
       inkscape:connector-curvature="0"
       style="fill:none;stroke:#26e424;stroke-width:0.60000002;stroke-linecap:round;stroke-linejoin:round;stroke-miterlimit:4;stroke-opacity:1"
       id="path3766"
       d="m 469.4375,469.0625 c -1.10095,3.85773 -2.24535,7.77045 -3.6875,11.78125 -1.70654,4.74609 -3.68304,9.55357 -5.9375,14.375 -2.25446,4.82143 -4.77783,9.62891 -7.65625,14.375 -1.43921,2.37305 -2.9843,4.73654 -4.59375,7.0625 -1.60945,2.32596 -3.30455,4.61496 -5.09375,6.875 -1.7892,2.26004 -3.6778,4.48096 -5.65625,6.65625 -1.97845,2.17529 -4.04154,4.33454 -6.21875,6.40625 -2.17721,2.07171 -4.45828,4.08196 -6.84375,6.03125 -2.38547,1.94929 -4.86551,3.81696 -7.46875,5.625 -2.60324,1.80804 -5.32574,3.53955 -8.15625,5.1875 -2.83051,1.64795 -5.77647,3.21847 -8.84375,4.6875 -3.06728,1.46903 -6.24895,2.85372 -9.5625,4.125 -3.31355,1.27128 -6.77441,2.41406 -10.34375,3.46875 -3.56934,1.05469 -7.25913,2.02448 -11.09375,2.84375 -3.83462,0.81927 -7.79684,1.49749 -11.90625,2.0625 -4.10941,0.56501 -8.3563,0.98933 -12.75,1.28125 -4.3937,0.29192 -8.9375,0.46875 -13.625,0.46875 -4.6875,0 -9.22049,0.13055 -13.625,0.40625 -4.40451,0.2757 -8.68216,0.68513 -12.8125,1.21875 -4.13034,0.53362 -8.13504,1.195 -12,1.96875 -3.86496,0.77375 -7.5791,1.66016 -11.1875,2.65625 -3.6084,0.99609 -7.10811,2.11185 -10.46875,3.3125 -3.36064,1.20065 -6.59706,2.48758 -9.71875,3.875 -3.12169,1.38742 -6.10846,2.84985 -9,4.40625 -2.89154,1.5564 -5.67355,3.19866 -8.34375,4.90625 -2.6702,1.70759 -5.22983,3.50276 -7.6875,5.34375 -2.45767,1.84099 -4.80856,3.73089 -7.0625,5.6875 -2.25394,1.95661 -4.40973,3.97681 -6.46875,6.03125 -2.05902,2.05444 -4.03334,4.14676 -5.90625,6.28125 -1.87291,2.13449 -3.64815,4.30326 -5.34375,6.5 -1.6956,2.19674 -3.31665,4.41504 -4.84375,6.65625 -3.0542,4.48242 -5.78571,9.04018 -8.21875,13.59375 -2.20918,4.13462 -4.09127,8.26239 -5.84375,12.34375 16.91602,32.58838 50.85961,54.8125 90.25,54.8125 l 96.5625,0 C 434.63887,712.375 480,666.98262 480,610.625 l 0,-96.53125 c 0,-16.21274 -3.87153,-31.45557 -10.5625,-45.03125 z" />
    <path
       inkscape:connector-curvature="0"
       style="fill:none;stroke:#26e424;stroke-width:0.60000002;stroke-linecap:round;stroke-linejoin:round;stroke-miterlimit:4;stroke-opacity:1"
       id="rect2987"
       d="M 281.71875,412.375 C 225.36113,412.375 180,457.73613 180,514.09375 l 0,96.53125 c 0,16.96723 4.18225,32.90021 11.46875,46.9375 1.75248,-4.08136 3.63457,-8.20913 5.84375,-12.34375 2.43304,-4.55357 5.16455,-9.11133 8.21875,-13.59375 1.5271,-2.24121 3.14815,-4.45951 4.84375,-6.65625 1.6956,-2.19674 3.47084,-4.36551 5.34375,-6.5 1.87291,-2.13449 3.84723,-4.22681 5.90625,-6.28125 2.05902,-2.05444 4.21481,-4.07464 6.46875,-6.03125 2.25394,-1.95661 4.60483,-3.84651 7.0625,-5.6875 2.45767,-1.84099 5.0173,-3.63616 7.6875,-5.34375 2.6702,-1.70759 5.45221,-3.34985 8.34375,-4.90625 2.89154,-1.5564 5.87831,-3.01883 9,-4.40625 3.12169,-1.38742 6.35811,-2.67435 9.71875,-3.875 3.36064,-1.20065 6.86035,-2.31641 10.46875,-3.3125 3.6084,-0.99609 7.32254,-1.8825 11.1875,-2.65625 3.86496,-0.77375 7.86966,-1.43513 12,-1.96875 4.13034,-0.53362 8.40799,-0.94305 12.8125,-1.21875 4.40451,-0.2757 8.9375,-0.40625 13.625,-0.40625 4.6875,0 9.2313,-0.17683 13.625,-0.46875 4.3937,-0.29192 8.64059,-0.71624 12.75,-1.28125 4.10941,-0.56501 8.07163,-1.24323 11.90625,-2.0625 3.83462,-0.81927 7.52441,-1.78906 11.09375,-2.84375 3.56934,-1.05469 7.0302,-2.19747 10.34375,-3.46875 3.31355,-1.27128 6.49522,-2.65597 9.5625,-4.125 3.06728,-1.46903 6.01324,-3.03955 8.84375,-4.6875 2.83051,-1.64795 5.55301,-3.37946 8.15625,-5.1875 2.60324,-1.80804 5.08328,-3.67571 7.46875,-5.625 2.38547,-1.94929 4.66654,-3.95954 6.84375,-6.03125 2.17721,-2.07171 4.2403,-4.23096 6.21875,-6.40625 1.97845,-2.17529 3.86705,-4.39621 5.65625,-6.65625 1.7892,-2.26004 3.4843,-4.54904 5.09375,-6.875 1.60945,-2.32596 3.15454,-4.68945 4.59375,-7.0625 2.87842,-4.74609 5.40179,-9.55357 7.65625,-14.375 2.25446,-4.82143 4.23096,-9.62891 5.9375,-14.375 1.44215,-4.0108 2.58655,-7.92352 3.6875,-11.78125 -16.56774,-33.61518 -51.01137,-56.6875 -91.15625,-56.6875 l -96.5625,0 z" />
    <g
       style="font-size:56px;font-style:normal;font-variant:normal;font-weight:normal;font-stretch:normal;line-height:125%;letter-spacing:0px;word-spacing:0px;fill:#ffffff;fill-opacity:0.98672569;stroke:none;filter:url(#filter4451);font-family:Trebuchet MS;-inkscape-font-specification:Trebuchet MS"
       id="text3772">
      <path
         inkscape:connector-curvature="0"
         style="font-size:100px;fill:#ffffff;fill-opacity:0.98672569;font-family:Arial Rounded MT Bold;-inkscape-font-specification:Arial Rounded MT Bold"
         id="path3777"
         d="m 242.41211,478.34851 0,20.50781 31.29883,0 0,-20.50781 c -6e-5,-2.92962 0.65098,-5.12688 1.95312,-6.5918 1.33458,-1.46477 3.07612,-2.19719 5.22461,-2.19726 2.18093,7e-5 3.93874,0.73249 5.27344,2.19726 1.36712,1.43236 2.05071,3.62963 2.05078,6.5918 l 0,56.39649 c -7e-5,2.96224 -0.68366,5.17578 -2.05078,6.64062 -1.36725,1.46484 -3.12506,2.19726 -5.27344,2.19727 -2.18105,-10e-6 -3.92258,-0.73243 -5.22461,-2.19727 -1.30214,-1.49739 -1.95318,-3.71093 -1.95312,-6.64062 l 0,-24.07227 -31.29883,0 0,24.07227 c -2e-5,2.96224 -0.68362,5.17578 -2.05078,6.64062 -1.36721,1.46484 -3.12502,2.19726 -5.27344,2.19727 -2.181,-10e-6 -3.92254,-0.73243 -5.22461,-2.19727 -1.30209,-1.49739 -1.95313,-3.71093 -1.95312,-6.64062 l 0,-56.39649 c -1e-5,-2.92962 0.63475,-5.12688 1.90429,-6.5918 1.30208,-1.46477 3.05989,-2.19719 5.27344,-2.19726 2.18097,7e-5 3.93878,0.73249 5.27344,2.19726 1.36716,1.43236 2.05076,3.62963 2.05078,6.5918" />
      <path
         inkscape:connector-curvature="0"
         style="font-size:100px;fill:#ffffff;fill-opacity:0.98672569;font-family:Arial Rounded MT Bold;-inkscape-font-specification:Arial Rounded MT Bold"
         id="path3779"
         d="m 316.19141,496.95203 0,38.52539 c -2e-5,2.66927 -0.63479,4.6875 -1.9043,6.05468 -1.26955,1.36719 -2.88088,2.05078 -4.83399,2.05079 -1.95313,-10e-6 -3.54818,-0.69987 -4.78515,-2.09961 -1.20444,-1.39974 -1.80665,-3.40169 -1.80664,-6.00586 l 0,-38.13477 c -1e-5,-2.63667 0.6022,-4.62234 1.80664,-5.95703 1.23697,-1.33458 2.83202,-2.0019 4.78515,-2.00195 1.95311,5e-5 3.56444,0.66737 4.83399,2.00195 1.26951,1.33469 1.90428,3.19015 1.9043,5.56641 m -6.5918,-13.76953 c -1.85548,5e-5 -3.45053,-0.56961 -4.78516,-1.70899 -1.30209,-1.13926 -1.95313,-2.75059 -1.95312,-4.83398 -1e-5,-1.88796 0.66731,-3.43418 2.00195,-4.63868 1.36718,-1.2369 2.94595,-1.85539 4.73633,-1.85546 1.72524,7e-5 3.25519,0.55345 4.58984,1.66015 1.33462,1.10684 2.00194,2.71817 2.00196,4.83399 -2e-5,2.05084 -0.65106,3.66217 -1.95313,4.83398 -1.3021,1.13938 -2.84832,1.70904 -4.63867,1.70899" />
      <path
         inkscape:connector-curvature="0"
         style="font-size:100px;fill:#ffffff;fill-opacity:0.98672569;font-family:Arial Rounded MT Bold;-inkscape-font-specification:Arial Rounded MT Bold"
         id="path3781"
         d="m 347.53906,522.245 -15.42969,0 c -2.34375,2e-5 -4.13411,-0.53709 -5.37109,-1.61133 -1.20443,-1.10675 -1.80664,-2.52277 -1.80664,-4.24805 0,-1.75778 0.58594,-3.1738 1.75781,-4.24805 1.20443,-1.10674 3.01106,-1.66012 5.41992,-1.66015 l 15.42969,0 c 2.40883,3e-5 4.19919,0.55341 5.3711,1.66015 1.20439,1.07425 1.80661,2.49027 1.80664,4.24805 -3e-5,1.72528 -0.58597,3.1413 -1.75782,4.24805 -1.1719,1.07424 -2.97854,1.61135 -5.41992,1.61133" />
    </g>
    <text
       sodipodi:linespacing="125%"
       style="font-size:56px;font-style:normal;font-variant:normal;font-weight:normal;font-stretch:normal;line-height:125%;letter-spacing:0px;word-spacing:0px;fill:#edf6fa;fill-opacity:1;stroke:none;filter:url(#filter4479);font-family:Trebuchet MS;-inkscape-font-specification:Trebuchet MS"
       xml:space="preserve"
       id="text3783"
       y="672.36218"
       x="240"><tspan
         style="font-size:100px;fill:#edf6fa;fill-opacity:1;font-family:Arial Rounded MT Bold;-inkscape-font-specification:Arial Rounded MT Bold"
         id="tspan3785"
         y="672.36218"
         x="240">Plex</tspan></text>
  </g>
  <text
     x="172.32227"
     y="762.36218"
     id="text4487"
     xml:space="preserve"
     style="font-size:56px;font-style:normal;font-variant:normal;font-weight:normal;font-stretch:normal;line-height:125%;letter-spacing:0px;word-spacing:0px;fill:#d0c3bc;fill-opacity:1;stroke:none;font-family:Trebuchet MS;-inkscape-font-specification:Trebuchet MS"
     sodipodi:linespacing="125%"><tspan
       x="172.32227"
       y="762.36218"
       id="tspan4489"
       style="fill:#d0c3bc;fill-opacity:1;font-family:Arial Rounded MT Bold;-inkscape-font-specification:Arial Rounded MT Bold">sequencing</tspan></text>
</svg>
